<?xml version="1.0" standalone="no"?>
<!DOCTYPE svg PUBLIC "-//W3C//DTD SVG 20010904//EN"
 "http://www.w3.org/TR/2001/REC-SVG-20010904/DTD/svg10.dtd">
<svg version="1.0" xmlns="http://www.w3.org/2000/svg"
 width="411.000000pt" height="411.000000pt" viewBox="0 0 411.000000 411.000000"
 preserveAspectRatio="xMidYMid meet">
<metadata>
Created by potrace 1.14, written by Peter Selinger 2001-2017
</metadata>
<g transform="translate(0.000000,411.000000) scale(0.100000,-0.100000)"
fill="#000000" stroke="none">
<path d="M1677 3844 c-2 -3 -51 -7 -108 -9 -124 -6 -191 -12 -374 -31 -27 -3
-63 -7 -80 -9 -16 -1 -30 -4 -30 -5 0 -1 -11 -3 -25 -5 -28 -3 -90 -13 -135
-22 -16 -3 -37 -6 -45 -7 -9 -1 -22 -6 -30 -11 -8 -5 -23 -10 -35 -12 -36 -5
-50 -8 -62 -16 -7 -5 -13 -5 -13 -2 0 4 -7 -1 -16 -9 -8 -9 -19 -14 -24 -11
-4 3 -24 -10 -44 -29 -33 -33 -35 -37 -33 -100 2 -55 6 -69 27 -90 14 -14 32
-26 39 -28 23 -5 83 -67 76 -78 -3 -6 -3 -10 2 -10 4 0 8 -15 9 -32 2 -131 25
-278 44 -278 3 0 5 -17 6 -38 1 -63 8 -106 17 -119 6 -9 5 -13 -2 -13 -7 0
-10 -3 -8 -7 3 -5 8 -26 11 -48 4 -21 15 -49 26 -60 20 -21 24 -40 34 -156 13
-143 17 -186 21 -219 4 -35 11 -101 20 -208 3 -31 8 -84 11 -117 4 -33 8 -78
10 -100 12 -161 33 -347 38 -352 3 -3 1 -14 -4 -24 -6 -11 -6 -20 -1 -24 6 -3
10 -13 10 -23 0 -16 9 -132 15 -179 1 -12 7 -27 13 -35 20 -25 35 -107 37
-208 1 -30 4 -59 7 -65 3 -5 5 -31 5 -57 -1 -27 1 -48 4 -48 3 0 6 -19 7 -43
1 -23 5 -76 8 -117 4 -41 8 -95 10 -120 1 -25 4 -45 4 -45 1 0 4 -26 6 -57 3
-34 11 -65 21 -77 10 -12 18 -39 19 -68 1 -26 2 -53 3 -59 3 -17 87 -104 100
-104 6 0 21 -10 33 -22 12 -13 19 -17 14 -10 -6 11 -3 11 14 0 12 -7 21 -15
21 -19 0 -3 7 -6 15 -7 8 -1 22 -3 30 -4 8 -1 15 -6 15 -11 0 -6 3 -7 6 -4 4
3 16 1 27 -5 11 -6 37 -13 56 -15 20 -3 38 -9 41 -13 3 -4 15 -6 28 -5 12 1
22 -2 22 -6 0 -4 8 -8 18 -7 9 0 35 -3 57 -6 73 -12 90 -15 140 -22 78 -10
540 -5 540 6 0 2 46 8 100 14 22 3 41 6 43 7 2 2 1 2 57 14 22 4 43 8 48 7 4
-1 7 2 7 8 0 5 7 7 15 4 8 -4 22 -1 30 6 8 7 15 10 15 7 0 -3 12 0 27 8 15 8
30 12 35 9 4 -3 8 -1 8 3 0 5 19 18 43 28 81 35 138 104 143 171 4 65 14 105
25 98 5 -3 10 3 10 13 1 10 3 29 5 43 2 14 6 59 8 100 3 41 5 75 6 75 1 0 3
14 4 30 21 225 21 229 30 243 3 6 2 13 -4 17 -6 4 -7 11 -3 18 3 6 8 27 9 46
6 105 17 176 29 195 14 22 25 65 30 126 4 51 16 123 21 132 3 5 -1 8 -8 8 -8
0 -9 3 -3 8 6 4 10 14 11 23 1 18 13 130 19 179 12 92 15 119 19 165 2 28 9
86 14 130 6 44 14 107 17 140 4 33 8 74 10 90 2 17 6 55 10 85 7 67 13 112 19
165 3 22 8 65 11 95 9 93 16 130 26 130 5 0 9 6 9 14 0 8 4 16 9 18 9 3 18 82
26 208 1 24 8 46 14 48 6 2 11 10 11 17 0 7 5 15 11 17 6 2 13 15 14 28 2 14
6 48 10 75 6 50 15 139 19 184 1 13 10 29 19 36 9 7 17 15 17 19 0 11 27 36
38 36 5 0 21 14 36 32 21 25 26 42 26 82 -1 54 -25 109 -50 114 -8 2 -16 8
-18 13 -2 5 -12 9 -23 9 -10 0 -19 5 -19 10 0 6 -3 9 -7 9 -5 -1 -11 0 -15 1
-9 3 -12 4 -58 14 -19 5 -41 13 -49 20 -12 9 -13 8 -6 -4 7 -12 6 -13 -6 -3
-8 7 -33 14 -54 17 -22 2 -40 5 -40 6 0 1 -16 3 -35 6 -40 5 -75 12 -75 14 0
1 -13 3 -30 4 -16 2 -57 6 -90 9 -33 4 -87 10 -120 13 -80 8 -100 11 -100 13
0 9 -1009 23 -1018 15z"/>
</g>
</svg>
